<?xml version="1.0" encoding="UTF-8"?>
<svg version="1.1" viewBox="0 0 900 900" width="1280" height="1280" xmlns="http://www.w3.org/2000/svg">
<path transform="translate(0)" d="m0 0h900v900h-900z" fill="#FDFDFD"/>
<path transform="translate(429,344)" d="m0 0h27l15 3 20 8 12 7 11 8 10 9 7 6 7 8 10 13 14 21 14 26 8 17 8 20 12 36-2 1-5-2-32-5-6-2-4-10-8-24-5-9-11-12-19-14-9-3-3-2 3 12 1 3-9 3-8 6-6 10-3 7-4 6 1 5 6 10 8 4 7 3 2 8-1 9-4 15 1 9 1 8-35-9-12-2h-12l-21 5-27 7-8 1 1-12 1-7 5-10 7-7 14-10 16-6 5-5 3-7v-10l-6-10-5-4-5-2-5-4-2-5-11-4h-16l-7 1-10-9-6-7-4-2-2 7-2 13v7l5 15-6 7-5 5-5 1v8l-1 1h-6l-2 4-5 1-4 1-6 4-8 1-15-2-10-3 2-11 8-22 12-27 10-19 12-19 12-16 12-14 7-7 11-9 13-9 15-8 17-6z" fill="#545A66"/>
<path transform="translate(376,111)" d="m0 0 16 1 11 4 10 7 8 8 11 16 9 19 5 16 5 24 1 8v10l-4 19-6 17-6 11-9 10-9 4-7 2h-19l-11-4-12-7-13-12-9-13-7-14-4-13-4-18-1-10v-16l2-20 5-17 8-15 9-9 11-6z" fill="#98C0CD"/>
<path transform="translate(526,120)" d="m0 0h16l10 3 11 7 8 9 8 14 4 12 2 17v21l-3 19-5 15-8 16-7 11-9 12-8 6-16 8-11 2-11-1-13-5-9-7-8-9-7-14-4-16-2-15v-11l3-19 6-18 8-16 8-11 7-9 9-9 10-7z" fill="#98C0CD"/>
<path transform="translate(611,264)" d="m0 0h16l13 4 10 8 7 10 6 14 3 13 1 15-4 23-7 21-6 11-8 10-9 10-11 8-8 4-10 3h-17l-11-4-9-6-8-7-8-11-5-16-2-12v-11l3-16 7-20 10-19 8-10 10-9 13-8 11-4z" fill="#98C0CD"/>
<path transform="translate(272,236)" d="m0 0h13l13 4 13 7 13 11 7 7 9 13 6 13 5 16 3 15 1 9v15l-2 13-4 11-7 8-4 5-8 4-8 2h-13l-12-3-16-8-12-9-9-9-9-13-9-17-5-15-3-19v-10l3-16 5-12 7-9 8-7 10-5z" fill="#98C0CD"/>
<path transform="translate(572,706)" d="m0 0 15 1 10 4 10 9 7 10 3 10v14l-3 11-6 8-8 8-10 5-8 2h-13l-10-3-10-6-8-9-5-10-1-3v-20l5-12 9-10 9-6 6-2z" fill="#545A66"/>
<path transform="translate(297,708)" d="m0 0h28l13 4 10 6 7 8 4 8 1 4v18l-4 11-7 9-9 6-11 4-6 1h-27l-1-9v-68z" fill="#545A66"/>
<path transform="translate(629,708)" d="m0 0h33l9 2 8 5 6 7 3 6 1 5v12l-3 9-6 9-8 6h-2l6 7 9 7 3 4h-21l-12-9-6-5-5-1v15h-16v-78z" fill="#545A66"/>
<path transform="translate(582,611)" d="m0 0h17l4 10 11 31 4 11v2l2-1 7-21 6-16 1-3h2l13 37 3 3 3-10 14-38 2-4 2-1h15l-2 9-14 38-9 25-3 7h-17l-3-3-4-11v-2h-3l-3 12-3 4h-17l-3-6-9-26-13-36z" fill="#545A66"/>
<path transform="translate(462,611)" d="m0 0h30l10 3 6 4 6 9 3 8v15l-3 9-6 8-8 5-8 2-19 1-1 15h-16v-78z" fill="#545A66"/>
<path transform="translate(240,708)" d="m0 0h17l3 5 13 37 11 30 1 7h-16l-5-12-3-3h-26l-4 9-3 6h-17l11-31 13-36z" fill="#545A66"/>
<path transform="translate(544,611)" d="m0 0h17l2 2 8 24 16 43 3 10-17 1-5-11-2-5-28-1-3 12-4 4h-15l2-9 18-49 7-20z" fill="#545A66"/>
<path transform="translate(289,611)" d="m0 0h15l1 30h28v-29l1-1h15l1 4v48l-1 26-1 1h-14l-1-30h-28l-1 30h-16v-78z" fill="#545A66"/>
<path transform="translate(363,611)" d="m0 0h50l1 5-1 12-34 1v14h33v15l-29 1-4 1v12l1 1 34 1v16h-51l-1-1v-77z" fill="#545A66"/>
<path transform="translate(361,708)" d="m0 0h17l2 2 9 26 8 22 1 4h2l3-11 16-43h17l-2 9-11 30-13 35-2 4-2 1h-16l-4-9-13-36-12-33z" fill="#545A66"/>
<path transform="translate(494,706)" d="m0 0h12l12 3 2 1-5 15-9-2h-9l-5 3-1 6 4 4 17 6 8 5 5 8 1 9-2 9-4 6-8 7-5 2h-20l-9-3-2-1 1-8 5-7 10 2 10-1 5-5v-5l-11-4-10-4-8-6-4-6-2-7 1-9 4-8 8-7z" fill="#545A66"/>
<path transform="translate(212,611)" d="m0 0h64v16l-13 1h-11v62h-16l-1-1v-61h-24v-16z" fill="#545A66"/>
<path transform="translate(570,722)" d="m0 0h11l10 5 7 8 2 5v15l-6 10-8 6-5 2h-11l-10-5-6-8-3-8v-10l5-10 8-7z" fill="#FAFBFC"/>
<path transform="translate(313,723)" d="m0 0h10l10 3 5 4 5 8 1 3v14l-6 9-8 6-8 2h-9l-1-1v-47z" fill="#FAFCFC"/>
<path transform="translate(446,708)" d="m0 0h16v79h-16z" fill="#545A66"/>
<path transform="translate(474,628)" d="m0 0h14l8 3 3 3 1 3v11l-4 6-3 2-5 1h-14l-2-2v-25z" fill="#F5F8F9"/>
<path transform="translate(646,725)" d="m0 0h14l7 3 4 4 1 2v10l-4 6-4 3-10 2-8-1-2-2v-25z" fill="#F9FBFB"/>
<path transform="translate(552,637)" d="m0 0 4 4 5 14-1 3h-14l-1-4 6-16z" fill="#EEF4F6"/>
<path transform="translate(248,734)" d="m0 0 3 1 5 15v4h-15l2-9 4-10z" fill="#F6F9FA"/>
</svg>
